<?xml version="1.0" encoding="UTF-8"?>
<svg xmlns="http://www.w3.org/2000/svg" xmlns:xlink="http://www.w3.org/1999/xlink" width="384pt" height="243pt" viewBox="0 0 384 243" version="1.1">
<defs>
<clipPath id="clip1">
  <path d="M 0 0.4375 L 384 0.4375 L 384 242.5625 L 0 242.5625 Z M 0 0.4375 "/>
</clipPath>
</defs>
<g id="surface1">
<rect x="0" y="0" width="384" height="243" style="fill:rgb(100%,100%,100%);fill-opacity:1;stroke:none;"/>
<path style="fill-rule:evenodd;fill:rgb(85.098039%,85.098039%,85.098039%);fill-opacity:1;stroke-width:1.066978;stroke-linecap:butt;stroke-linejoin:round;stroke:rgb(74.901961%,74.901961%,74.901961%);stroke-opacity:1;stroke-miterlimit:10;" d="M 244.910156 61.894531 L 250.3125 59.3125 L 251.871094 59.640625 L 259.808594 59.226563 L 260.128906 59.65625 L 256.644531 60.59375 L 255.417969 67.664063 L 252.605469 70.824219 L 246.261719 70.917969 Z M 244.910156 61.894531 "/>
<path style="fill-rule:evenodd;fill:rgb(85.098039%,85.098039%,85.098039%);fill-opacity:1;stroke-width:1.066978;stroke-linecap:butt;stroke-linejoin:round;stroke:rgb(74.901961%,74.901961%,74.901961%);stroke-opacity:1;stroke-miterlimit:10;" d="M 204.652344 139.691406 L 202.160156 143.042969 L 203.476563 150.84375 L 189.632813 150.472656 L 192.082031 141.582031 L 190.582031 131.425781 L 195.496094 131.042969 L 196.863281 134.804688 L 202.09375 133.472656 Z M 204.652344 139.691406 "/>
<path style="fill-rule:evenodd;fill:rgb(85.098039%,85.098039%,85.098039%);fill-opacity:1;stroke-width:1.066978;stroke-linecap:butt;stroke-linejoin:round;stroke:rgb(74.901961%,74.901961%,74.901961%);stroke-opacity:1;stroke-miterlimit:10;" d="M 190.414063 130.894531 L 190.09375 129.601563 L 191.421875 129.160156 Z M 190.414063 130.894531 "/>
<path style="fill-rule:evenodd;fill:rgb(85.098039%,85.098039%,85.098039%);fill-opacity:1;stroke-width:1.066978;stroke-linecap:butt;stroke-linejoin:round;stroke:rgb(74.901961%,74.901961%,74.901961%);stroke-opacity:1;stroke-miterlimit:10;" d="M 198.089844 52.722656 L 198.691406 54.183594 L 197.878906 55.960938 L 196.75 52.6875 L 197.425781 51.671875 Z M 198.089844 52.722656 "/>
<path style="fill-rule:evenodd;fill:rgb(85.098039%,85.098039%,85.098039%);fill-opacity:1;stroke-width:1.066978;stroke-linecap:butt;stroke-linejoin:round;stroke:rgb(74.901961%,74.901961%,74.901961%);stroke-opacity:1;stroke-miterlimit:10;" d="M 236.613281 79.886719 L 241.554688 76.949219 L 241.855469 77.5 L 242.183594 78.78125 L 241.210938 82.402344 Z M 236.613281 79.886719 "/>
<path style="fill-rule:evenodd;fill:rgb(85.098039%,85.098039%,85.098039%);fill-opacity:1;stroke-width:1.066978;stroke-linecap:butt;stroke-linejoin:round;stroke:rgb(74.901961%,74.901961%,74.901961%);stroke-opacity:1;stroke-miterlimit:10;" d="M 100.730469 158.691406 L 103.261719 161.367188 L 111.019531 164.386719 L 108.558594 171.539063 L 108.660156 177.292969 L 111.429688 181.84375 L 107.117188 184.863281 L 103.207031 195.367188 L 105.179688 203.273438 L 99.222656 200.808594 L 98.28125 192.746094 L 96.011719 187.648438 L 95.734375 177.730469 L 93.941406 173.34375 L 95.566406 159.492188 Z M 100.730469 158.691406 "/>
<path style="fill-rule:evenodd;fill:rgb(85.098039%,85.098039%,85.098039%);fill-opacity:1;stroke-width:1.066978;stroke-linecap:butt;stroke-linejoin:round;stroke:rgb(74.901961%,74.901961%,74.901961%);stroke-opacity:1;stroke-miterlimit:10;" d="M 223.554688 53.820313 L 225.042969 53.597656 L 227.421875 57.21875 L 227.027344 57.261719 L 225.261719 55.832031 Z M 223.554688 53.820313 "/>
<path style="fill-rule:evenodd;fill:rgb(85.098039%,85.098039%,85.098039%);fill-opacity:1;stroke-width:1.066978;stroke-linecap:butt;stroke-linejoin:round;stroke:rgb(74.901961%,74.901961%,74.901961%);stroke-opacity:1;stroke-miterlimit:10;" d="M 121.457031 216.785156 L 117.339844 220.066406 L 123.148438 223.082031 L 125.066406 225.609375 L 115.667969 228.085938 L 129.558594 229.734375 L 154.246094 229.097656 L 152.71875 227.082031 L 169.210938 223.566406 L 183.679688 222.195313 L 198.695313 222.570313 L 222.972656 218.640625 L 236.355469 220.386719 L 242.855469 221.726563 L 253.722656 219.417969 L 278.234375 218.472656 L 283.210938 219.707031 L 298.164063 218.625 L 305.5625 219.453125 L 310.824219 220.945313 L 319.964844 223.566406 L 307.152344 226.300781 L 293.058594 229.382813 L 299.207031 230.777344 L 286.101563 231.558594 L 64.835938 231.558594 L 51.734375 230.777344 L 51.792969 230.78125 L 67.824219 230.460938 L 57.558594 228.457031 L 58.472656 226.484375 L 65.265625 225.511719 L 80.675781 225.46875 L 88.886719 226.117188 L 98.949219 224.691406 L 118.285156 224.574219 L 115.179688 219.832031 Z M 121.457031 216.785156 "/>
<path style="fill-rule:evenodd;fill:rgb(85.098039%,85.098039%,85.098039%);fill-opacity:1;stroke-width:1.066978;stroke-linecap:butt;stroke-linejoin:round;stroke:rgb(74.901961%,74.901961%,74.901961%);stroke-opacity:1;stroke-miterlimit:10;" d="M 349.914063 144.511719 L 351.738281 146.578125 L 351.492188 153.242188 L 356.089844 163.621094 L 351.996094 173.777344 L 345.101563 181.117188 L 338.699219 185.019531 L 333.1875 183.515625 L 329.871094 175.296875 L 327.1875 173.550781 L 320.773438 174.671875 L 316.886719 177.265625 L 309.730469 179.0625 L 308.863281 174.65625 L 309.832031 162.1875 L 312.328125 158 L 320.539063 154.449219 L 328.070313 145.300781 L 332.539063 145.625 L 338.253906 141.15625 L 339.757813 146.121094 L 343.523438 150.589844 Z M 349.914063 144.511719 "/>
<path style="fill-rule:evenodd;fill:rgb(85.098039%,85.098039%,85.098039%);fill-opacity:1;stroke-width:1.066978;stroke-linecap:butt;stroke-linejoin:round;stroke:rgb(74.901961%,74.901961%,74.901961%);stroke-opacity:1;stroke-miterlimit:10;" d="M 193.40625 44.015625 L 192.734375 45.730469 L 190.214844 46.195313 L 186.59375 45.671875 L 185.648438 44.816406 L 189.757813 43.011719 L 193.328125 43.382813 Z M 193.40625 44.015625 "/>
<path style="fill-rule:evenodd;fill:rgb(85.098039%,85.098039%,85.098039%);fill-opacity:1;stroke-width:1.066978;stroke-linecap:butt;stroke-linejoin:round;stroke:rgb(74.901961%,74.901961%,74.901961%);stroke-opacity:1;stroke-miterlimit:10;" d="M 228.855469 52.789063 L 230.207031 57.886719 L 227.421875 57.21875 L 225.042969 53.597656 L 226.449219 52.714844 Z M 228.855469 52.789063 "/>
<path style="fill-rule:evenodd;fill:rgb(85.098039%,85.098039%,85.098039%);fill-opacity:1;stroke-width:1.066978;stroke-linecap:butt;stroke-linejoin:round;stroke:rgb(74.901961%,74.901961%,74.901961%);stroke-opacity:1;stroke-miterlimit:10;" d="M 211.492188 128.675781 L 211.132813 125.816406 L 212.910156 125.085938 Z M 211.492188 128.675781 "/>
<path style="fill-rule:evenodd;fill:rgb(85.098039%,85.098039%,85.098039%);fill-opacity:1;stroke-width:1.066978;stroke-linecap:butt;stroke-linejoin:round;stroke:rgb(74.901961%,74.901961%,74.901961%);stroke-opacity:1;stroke-miterlimit:10;" d="M 178.890625 39.789063 L 181.851563 40.488281 L 181.765625 41.363281 L 181.40625 42.148438 L 178.070313 40.042969 Z M 178.890625 39.789063 "/>
<path style="fill-rule:evenodd;fill:rgb(85.098039%,85.098039%,85.098039%);fill-opacity:1;stroke-width:1.066978;stroke-linecap:butt;stroke-linejoin:round;stroke:rgb(74.901961%,74.901961%,74.901961%);stroke-opacity:1;stroke-miterlimit:10;" d="M 178.769531 110.148438 L 177.757813 110.347656 L 176.566406 102.039063 L 178.09375 100.433594 L 179.871094 100.910156 Z M 178.769531 110.148438 "/>
<path style="fill-rule:evenodd;fill:rgb(85.098039%,85.098039%,85.098039%);fill-opacity:1;stroke-width:1.066978;stroke-linecap:butt;stroke-linejoin:round;stroke:rgb(74.901961%,74.901961%,74.901961%);stroke-opacity:1;stroke-miterlimit:10;" d="M 172.015625 104.351563 L 168.871094 103.105469 L 173.042969 95.992188 L 175.925781 95.367188 L 178.09375 100.433594 L 176.566406 102.039063 L 175.5 102 Z M 172.015625 104.351563 "/>
<path style="fill-rule:evenodd;fill:rgb(85.098039%,85.098039%,85.098039%);fill-opacity:1;stroke-width:1.066978;stroke-linecap:butt;stroke-linejoin:round;stroke:rgb(74.901961%,74.901961%,74.901961%);stroke-opacity:1;stroke-miterlimit:10;" d="M 286.03125 83.5 L 286.070313 85.761719 L 281.683594 83.472656 Z M 286.03125 83.5 "/>
<path style="fill-rule:evenodd;fill:rgb(85.098039%,85.098039%,85.098039%);fill-opacity:1;stroke-width:1.066978;stroke-linecap:butt;stroke-linejoin:round;stroke:rgb(74.901961%,74.901961%,74.901961%);stroke-opacity:1;stroke-miterlimit:10;" d="M 200.015625 49.34375 L 206.503906 50.085938 L 206.199219 52.503906 L 204.164063 52.761719 L 200.757813 53.464844 L 199.992188 52.054688 Z M 200.015625 49.34375 "/>
<path style="fill-rule:evenodd;fill:rgb(85.098039%,85.098039%,85.098039%);fill-opacity:1;stroke-width:1.066978;stroke-linecap:butt;stroke-linejoin:round;stroke:rgb(74.901961%,74.901961%,74.901961%);stroke-opacity:1;stroke-miterlimit:10;" d="M 195.980469 48.472656 L 196.378906 50.34375 L 195.765625 51.585938 Z M 195.980469 48.472656 "/>
<path style="fill-rule:evenodd;fill:rgb(85.098039%,85.098039%,85.098039%);fill-opacity:1;stroke-width:1.066978;stroke-linecap:butt;stroke-linejoin:round;stroke:rgb(74.901961%,74.901961%,74.901961%);stroke-opacity:1;stroke-miterlimit:10;" d="M 199.242188 36.5625 L 201.917969 34.492188 L 203.46875 33.832031 L 208.101563 38.828125 L 199.71875 39.492188 Z M 199.242188 36.5625 "/>
<path style="fill-rule:evenodd;fill:rgb(85.098039%,85.098039%,85.098039%);fill-opacity:1;stroke-width:1.066978;stroke-linecap:butt;stroke-linejoin:round;stroke:rgb(74.901961%,74.901961%,74.901961%);stroke-opacity:1;stroke-miterlimit:10;" d="M 68 90.527344 L 69.179688 89.371094 L 67.824219 93.75 Z M 68 90.527344 "/>
<path style="fill-rule:evenodd;fill:rgb(85.098039%,85.098039%,85.098039%);fill-opacity:1;stroke-width:1.066978;stroke-linecap:butt;stroke-linejoin:round;stroke:rgb(74.901961%,74.901961%,74.901961%);stroke-opacity:1;stroke-miterlimit:10;" d="M 95.566406 159.492188 L 91.53125 150.941406 L 91.871094 142.472656 L 90.621094 139.734375 L 95.726563 140.78125 L 101.953125 144.53125 L 105.03125 148.792969 L 105.734375 155.269531 L 101.296875 154.367188 L 100.730469 158.691406 Z M 95.566406 159.492188 "/>
<path style="fill-rule:evenodd;fill:rgb(85.098039%,85.098039%,85.098039%);fill-opacity:1;stroke-width:1.066978;stroke-linecap:butt;stroke-linejoin:round;stroke:rgb(74.901961%,74.901961%,74.901961%);stroke-opacity:1;stroke-miterlimit:10;" d="M 108.558594 171.539063 L 111.019531 164.386719 L 109.238281 159.359375 L 105.734375 155.269531 L 105.03125 148.792969 L 101.953125 144.53125 L 95.726563 140.78125 L 90.621094 139.734375 L 84.832031 133.871094 L 86.019531 130.007813 L 89.648438 128.328125 L 89.664063 117.96875 L 93.269531 118.765625 L 97.011719 113.996094 L 100.933594 111.96875 L 102.914063 118.652344 L 105.984375 117.648438 L 108.46875 116.941406 L 112.035156 113.765625 L 115.703125 121.332031 L 124.515625 125.941406 L 132.234375 130.335938 L 132.5 136.394531 L 128.140625 144.5625 L 127.734375 154.308594 L 125.507813 159.875 L 120.355469 161.707031 L 118.371094 169.097656 L 114.398438 177.078125 Z M 108.558594 171.539063 "/>
<path style="fill-rule:evenodd;fill:rgb(85.098039%,85.098039%,85.098039%);fill-opacity:1;stroke-width:1.066978;stroke-linecap:butt;stroke-linejoin:round;stroke:rgb(74.901961%,74.901961%,74.901961%);stroke-opacity:1;stroke-miterlimit:10;" d="M 210.578125 158.433594 L 205.773438 163.976563 L 199.015625 162.8125 L 200.65625 152.066406 L 205.722656 151.078125 L 205.933594 151.203125 Z M 210.578125 158.433594 "/>
<path style="fill-rule:evenodd;fill:rgb(85.098039%,85.098039%,85.098039%);fill-opacity:1;stroke-width:1.066978;stroke-linecap:butt;stroke-linejoin:round;stroke:rgb(74.901961%,74.901961%,74.901961%);stroke-opacity:1;stroke-miterlimit:10;" d="M 194.191406 108.152344 L 197.46875 107.347656 L 203.363281 101.789063 L 204.601563 106.019531 L 205.546875 106.769531 L 209.0625 111.910156 L 198.136719 114.886719 L 195.148438 117.015625 L 193.242188 112.773438 Z M 194.191406 108.152344 "/>
<path style="fill-rule:evenodd;fill:rgb(85.098039%,85.098039%,85.098039%);fill-opacity:1;stroke-width:1.066978;stroke-linecap:butt;stroke-linejoin:round;stroke:rgb(74.901961%,74.901961%,74.901961%);stroke-opacity:1;stroke-miterlimit:10;" d="M 103.144531 48.085938 L 94.75 48.277344 L 84.8125 52.980469 L 86.660156 47.792969 L 82.21875 43.773438 L 63.058594 42.847656 L 46.476563 42.847656 L 43.394531 40.453125 L 44.28125 35.472656 L 45.121094 29.675781 L 40.464844 29.105469 L 53.480469 19.90625 L 66.09375 19.347656 L 78.355469 21.421875 L 88.3125 21.601563 L 92.382813 19.589844 L 100.589844 20.707031 L 97.769531 23.203125 L 84.695313 29.320313 L 86.011719 32.519531 L 92.269531 36.109375 L 99.652344 33.398438 L 102.132813 26.945313 L 113.882813 30.058594 L 118.324219 38.769531 L 107.265625 42.539063 Z M 103.144531 48.085938 "/>
<path style="fill-rule:evenodd;fill:rgb(85.098039%,85.098039%,85.098039%);fill-opacity:1;stroke-width:1.066978;stroke-linecap:butt;stroke-linejoin:round;stroke:rgb(74.901961%,74.901961%,74.901961%);stroke-opacity:1;stroke-miterlimit:10;" d="M 80.90625 17.191406 L 87.640625 17.527344 L 83.195313 20.363281 L 76.027344 20.925781 L 74.519531 18.390625 Z M 80.90625 17.191406 "/>
<path style="fill-rule:evenodd;fill:rgb(85.098039%,85.098039%,85.098039%);fill-opacity:1;stroke-width:1.066978;stroke-linecap:butt;stroke-linejoin:round;stroke:rgb(74.901961%,74.901961%,74.901961%);stroke-opacity:1;stroke-miterlimit:10;" d="M 103.804688 17.164063 L 107.867188 16.730469 L 119.414063 23.105469 L 113.105469 27.355469 L 106.699219 24.828125 L 110.78125 22.054688 Z M 103.804688 17.164063 "/>
<path style="fill-rule:evenodd;fill:rgb(85.098039%,85.098039%,85.098039%);fill-opacity:1;stroke-width:1.066978;stroke-linecap:butt;stroke-linejoin:round;stroke:rgb(74.901961%,74.901961%,74.901961%);stroke-opacity:1;stroke-miterlimit:10;" d="M 185.648438 44.816406 L 186.59375 45.671875 L 182.800781 46.90625 L 183.386719 44.691406 Z M 185.648438 44.816406 "/>
<path style="fill-rule:evenodd;fill:rgb(85.098039%,85.098039%,85.098039%);fill-opacity:1;stroke-width:1.066978;stroke-linecap:butt;stroke-linejoin:round;stroke:rgb(74.901961%,74.901961%,74.901961%);stroke-opacity:1;stroke-miterlimit:10;" d="M 95.566406 159.492188 L 93.941406 173.34375 L 95.734375 177.730469 L 96.011719 187.648438 L 98.28125 192.746094 L 99.222656 200.808594 L 105.179688 203.273438 L 98.621094 203.226563 L 95.324219 194.628906 L 93.050781 182.175781 L 93.253906 174.988281 L 91.703125 157.28125 L 90.730469 152.226563 L 91.53125 150.941406 Z M 95.566406 159.492188 "/>
<path style="fill-rule:evenodd;fill:rgb(85.098039%,85.098039%,85.098039%);fill-opacity:1;stroke-width:1.066978;stroke-linecap:butt;stroke-linejoin:round;stroke:rgb(74.901961%,74.901961%,74.901961%);stroke-opacity:1;stroke-miterlimit:10;" d="M 318.542969 51.949219 L 313.445313 55.515625 L 312.671875 63.863281 L 317.449219 70.914063 L 315.996094 79.394531 L 313.441406 82.277344 L 304.546875 84.304688 L 300.664063 81.347656 L 297.21875 82.800781 L 296.378906 84.496094 L 293.839844 83.371094 L 291.207031 74.613281 L 289.3125 73.410156 L 285.667969 71.792969 L 282.914063 74.191406 L 279.707031 74.949219 L 278.683594 74.023438 L 269.664063 70.359375 L 266.425781 68.265625 L 263.835938 62.132813 L 260.128906 59.65625 L 259.808594 59.226563 L 257.492188 56.246094 L 263.390625 52.011719 L 261.730469 48.390625 L 267.066406 42.5625 L 267.425781 42.453125 L 273.347656 47.878906 L 280.785156 51.476563 L 290.949219 53.09375 L 295.023438 51.769531 L 300.726563 45.972656 L 297.226563 41.675781 L 304.085938 37.953125 L 314.164063 44.460938 Z M 318.542969 51.949219 "/>
<path style="fill-rule:evenodd;fill:rgb(85.098039%,85.098039%,85.098039%);fill-opacity:1;stroke-width:1.066978;stroke-linecap:butt;stroke-linejoin:round;stroke:rgb(74.901961%,74.901961%,74.901961%);stroke-opacity:1;stroke-miterlimit:10;" d="M 171.964844 112.320313 L 166 113.40625 L 165.132813 107.699219 L 165.660156 103.386719 L 168.871094 103.105469 L 172.015625 104.351563 Z M 171.964844 112.320313 "/>
<path style="fill-rule:evenodd;fill:rgb(85.098039%,85.098039%,85.098039%);fill-opacity:1;stroke-width:1.066978;stroke-linecap:butt;stroke-linejoin:round;stroke:rgb(74.901961%,74.901961%,74.901961%);stroke-opacity:1;stroke-miterlimit:10;" d="M 191.539063 117.015625 L 189.328125 117.027344 L 187.328125 116.988281 L 185.90625 112.703125 L 189.867188 108.910156 L 192.738281 99.507813 L 193.109375 98.871094 L 192.527344 104.507813 L 194.191406 108.152344 L 193.242188 112.773438 L 195.148438 117.015625 Z M 191.539063 117.015625 "/>
<path style="fill-rule:evenodd;fill:rgb(85.098039%,85.098039%,85.098039%);fill-opacity:1;stroke-width:1.066978;stroke-linecap:butt;stroke-linejoin:round;stroke:rgb(74.901961%,74.901961%,74.901961%);stroke-opacity:1;stroke-miterlimit:10;" d="M 213.34375 114.878906 L 211.828125 123.234375 L 211.132813 125.816406 L 211.492188 128.675781 L 213.097656 135.269531 L 209.761719 141.980469 L 204.652344 139.691406 L 202.09375 133.472656 L 196.863281 134.804688 L 195.496094 131.042969 L 190.582031 131.425781 L 190.414063 130.894531 L 191.421875 129.160156 L 193.367188 129.484375 L 197.011719 122.207031 L 198.136719 114.886719 L 209.0625 111.910156 Z M 213.34375 114.878906 "/>
<path style="fill-rule:evenodd;fill:rgb(85.098039%,85.098039%,85.098039%);fill-opacity:1;stroke-width:1.066978;stroke-linecap:butt;stroke-linejoin:round;stroke:rgb(74.901961%,74.901961%,74.901961%);stroke-opacity:1;stroke-miterlimit:10;" d="M 191.421875 129.160156 L 190.09375 129.601563 L 189.09375 127.78125 L 193.199219 123.222656 L 191.539063 117.015625 L 195.148438 117.015625 L 198.136719 114.886719 L 197.011719 122.207031 L 193.367188 129.484375 Z M 191.421875 129.160156 "/>
<path style="fill-rule:evenodd;fill:rgb(85.098039%,85.098039%,85.098039%);fill-opacity:1;stroke-width:1.066978;stroke-linecap:butt;stroke-linejoin:round;stroke:rgb(74.901961%,74.901961%,74.901961%);stroke-opacity:1;stroke-miterlimit:10;" d="M 82.816406 121.1875 L 78.546875 118.542969 L 80.746094 114.292969 L 80.035156 108.492188 L 80.816406 106.011719 L 83.320313 102.683594 L 88.523438 100.710938 L 86.21875 104.1875 L 87.273438 108.890625 L 92.453125 110.132813 L 93.269531 118.765625 L 89.664063 117.96875 L 89.648438 128.328125 Z M 82.816406 121.1875 "/>
<path style="fill-rule:evenodd;fill:rgb(85.098039%,85.098039%,85.098039%);fill-opacity:1;stroke-width:1.066978;stroke-linecap:butt;stroke-linejoin:round;stroke:rgb(74.901961%,74.901961%,74.901961%);stroke-opacity:1;stroke-miterlimit:10;" d="M 73.902344 106.777344 L 70.894531 101.882813 L 73.382813 102.136719 L 74.5625 104.480469 Z M 73.902344 106.777344 "/>
<path style="fill-rule:evenodd;fill:rgb(85.098039%,85.098039%,85.098039%);fill-opacity:1;stroke-width:1.066978;stroke-linecap:butt;stroke-linejoin:round;stroke:rgb(74.901961%,74.901961%,74.901961%);stroke-opacity:1;stroke-miterlimit:10;" d="M 193.328125 43.382813 L 189.757813 43.011719 L 191.003906 40.097656 L 195.199219 42.191406 Z M 193.328125 43.382813 "/>
<path style="fill-rule:evenodd;fill:rgb(85.098039%,85.098039%,85.098039%);fill-opacity:1;stroke-width:1.066978;stroke-linecap:butt;stroke-linejoin:round;stroke:rgb(74.901961%,74.901961%,74.901961%);stroke-opacity:1;stroke-miterlimit:10;" d="M 185.425781 35.253906 L 189.78125 36.753906 L 191.003906 40.097656 L 189.757813 43.011719 L 185.648438 44.816406 L 183.386719 44.691406 L 181.945313 42.234375 L 181.765625 41.363281 L 181.851563 40.488281 L 182.484375 37.09375 L 184.027344 35.277344 Z M 185.425781 35.253906 "/>
<path style="fill-rule:evenodd;fill:rgb(85.098039%,85.098039%,85.098039%);fill-opacity:1;stroke-width:1.066978;stroke-linecap:butt;stroke-linejoin:round;stroke:rgb(74.901961%,74.901961%,74.901961%);stroke-opacity:1;stroke-miterlimit:10;" d="M 227.910156 99.140625 L 228.082031 101.246094 L 227.671875 102.15625 L 227.035156 99.410156 Z M 227.910156 99.140625 "/>
<path style="fill-rule:evenodd;fill:rgb(85.098039%,85.098039%,85.098039%);fill-opacity:1;stroke-width:1.066978;stroke-linecap:butt;stroke-linejoin:round;stroke:rgb(74.901961%,74.901961%,74.901961%);stroke-opacity:1;stroke-miterlimit:10;" d="M 189.726563 81.152344 L 180.597656 88.277344 L 169.648438 78.699219 L 165.28125 74.792969 L 165.3125 74.375 L 173.964844 67.101563 L 173.003906 62.628906 L 177.125 60.449219 L 184.964844 59.9375 L 184.195313 65.425781 L 186.476563 70.164063 L 186.453125 76.886719 Z M 189.726563 81.152344 "/>
<path style="fill-rule:evenodd;fill:rgb(85.098039%,85.098039%,85.098039%);fill-opacity:1;stroke-width:1.066978;stroke-linecap:butt;stroke-linejoin:round;stroke:rgb(74.901961%,74.901961%,74.901961%);stroke-opacity:1;stroke-miterlimit:10;" d="M 76.828125 126.792969 L 78.546875 118.542969 L 82.816406 121.1875 L 79.839844 126.097656 Z M 76.828125 126.792969 "/>
<path style="fill-rule:evenodd;fill:rgb(85.098039%,85.098039%,85.098039%);fill-opacity:1;stroke-width:1.066978;stroke-linecap:butt;stroke-linejoin:round;stroke:rgb(74.901961%,74.901961%,74.901961%);stroke-opacity:1;stroke-miterlimit:10;" d="M 216.132813 71.4375 L 215.65625 76.808594 L 219.457031 83.566406 L 205.296875 83.566406 L 204.535156 68.183594 L 208.957031 69.277344 L 215.101563 68.730469 Z M 216.132813 71.4375 "/>
<path style="fill-rule:evenodd;fill:rgb(85.098039%,85.098039%,85.098039%);fill-opacity:1;stroke-width:1.066978;stroke-linecap:butt;stroke-linejoin:round;stroke:rgb(74.901961%,74.901961%,74.901961%);stroke-opacity:1;stroke-miterlimit:10;" d="M 227.035156 99.410156 L 222.898438 95.683594 L 219.6875 96.222656 L 221.757813 90.207031 L 222.996094 93.691406 L 227.910156 99.140625 Z M 227.035156 99.410156 "/>
<path style="fill-rule:evenodd;fill:rgb(85.098039%,85.098039%,85.098039%);fill-opacity:1;stroke-width:1.066978;stroke-linecap:butt;stroke-linejoin:round;stroke:rgb(74.901961%,74.901961%,74.901961%);stroke-opacity:1;stroke-miterlimit:10;" d="M 165.546875 52.683594 L 166.800781 50.027344 L 173.398438 50.488281 L 178.738281 51.835938 L 174.703125 58.894531 L 169.378906 61.445313 L 167.074219 59.710938 Z M 165.546875 52.683594 "/>
<path style="fill-rule:evenodd;fill:rgb(85.098039%,85.098039%,85.098039%);fill-opacity:1;stroke-width:1.066978;stroke-linecap:butt;stroke-linejoin:round;stroke:rgb(74.901961%,74.901961%,74.901961%);stroke-opacity:1;stroke-miterlimit:10;" d="M 199.289063 31.929688 L 202.46875 30.023438 L 202.28125 32.300781 Z M 199.289063 31.929688 "/>
<path style="fill-rule:evenodd;fill:rgb(85.098039%,85.098039%,85.098039%);fill-opacity:1;stroke-width:1.066978;stroke-linecap:butt;stroke-linejoin:round;stroke:rgb(74.901961%,74.901961%,74.901961%);stroke-opacity:1;stroke-miterlimit:10;" d="M 227.035156 99.410156 L 227.671875 102.15625 L 228.886719 105.136719 L 233.988281 107.15625 L 230.65625 112.308594 L 226.871094 114.171875 L 224.0625 115.027344 L 218.78125 111.441406 L 217.042969 105.988281 L 216.984375 104.453125 L 219.6875 96.222656 L 222.898438 95.683594 Z M 227.035156 99.410156 "/>
<path style="fill-rule:evenodd;fill:rgb(85.098039%,85.098039%,85.098039%);fill-opacity:1;stroke-width:1.066978;stroke-linecap:butt;stroke-linejoin:round;stroke:rgb(74.901961%,74.901961%,74.901961%);stroke-opacity:1;stroke-miterlimit:10;" d="M 200.402344 20.464844 L 204.695313 26.90625 L 202.296875 28.886719 L 195.1875 26.644531 L 197.0625 23.25 L 193.464844 20.425781 Z M 200.402344 20.464844 "/>
<path style="fill-rule:evenodd;fill:rgb(85.098039%,85.098039%,85.098039%);fill-opacity:1;stroke-width:1.066978;stroke-linecap:butt;stroke-linejoin:round;stroke:rgb(74.901961%,74.901961%,74.901961%);stroke-opacity:1;stroke-miterlimit:10;" d="M 108.46875 116.941406 L 108.671875 113.667969 L 109.273438 111.011719 L 112.035156 113.765625 Z M 108.46875 116.941406 "/>
<path style="fill-rule:evenodd;fill:rgb(85.098039%,85.098039%,85.098039%);fill-opacity:1;stroke-width:1.066978;stroke-linecap:butt;stroke-linejoin:round;stroke:rgb(74.901961%,74.901961%,74.901961%);stroke-opacity:1;stroke-miterlimit:10;" d="M 181.40625 42.148438 L 181.945313 42.234375 L 183.386719 44.691406 L 182.800781 46.90625 L 183.550781 50.105469 L 178.738281 51.835938 L 173.398438 50.488281 L 172.328125 44.757813 L 178.070313 40.042969 Z M 181.40625 42.148438 "/>
<path style="fill-rule:evenodd;fill:rgb(85.098039%,85.098039%,85.098039%);fill-opacity:1;stroke-width:1.066978;stroke-linecap:butt;stroke-linejoin:round;stroke:rgb(74.901961%,74.901961%,74.901961%);stroke-opacity:1;stroke-miterlimit:10;" d="M 189.09375 127.78125 L 186.285156 122.839844 L 187.136719 119.183594 L 189.328125 117.027344 L 191.539063 117.015625 L 193.199219 123.222656 Z M 189.09375 127.78125 "/>
<path style="fill-rule:evenodd;fill:rgb(85.098039%,85.098039%,85.098039%);fill-opacity:1;stroke-width:1.066978;stroke-linecap:butt;stroke-linejoin:round;stroke:rgb(74.901961%,74.901961%,74.901961%);stroke-opacity:1;stroke-miterlimit:10;" d="M 172.546875 30.96875 L 176.96875 39.863281 L 171.703125 41.234375 Z M 172.546875 30.96875 "/>
<path style="fill-rule:evenodd;fill:rgb(85.098039%,85.098039%,85.098039%);fill-opacity:1;stroke-width:1.066978;stroke-linecap:butt;stroke-linejoin:round;stroke:rgb(74.901961%,74.901961%,74.901961%);stroke-opacity:1;stroke-miterlimit:10;" d="M 221.203125 53.179688 L 218.960938 50.46875 L 226.449219 52.714844 L 225.042969 53.597656 L 223.554688 53.820313 Z M 221.203125 53.179688 "/>
<path style="fill-rule:evenodd;fill:rgb(85.098039%,85.098039%,85.098039%);fill-opacity:1;stroke-width:1.066978;stroke-linecap:butt;stroke-linejoin:round;stroke:rgb(74.901961%,74.901961%,74.901961%);stroke-opacity:1;stroke-miterlimit:10;" d="M 176.769531 110.714844 L 171.964844 112.320313 L 172.015625 104.351563 L 175.5 102 Z M 176.769531 110.714844 "/>
<path style="fill-rule:evenodd;fill:rgb(85.098039%,85.098039%,85.098039%);fill-opacity:1;stroke-width:1.066978;stroke-linecap:butt;stroke-linejoin:round;stroke:rgb(74.901961%,74.901961%,74.901961%);stroke-opacity:1;stroke-miterlimit:10;" d="M 165.132813 107.699219 L 162.949219 106.464844 L 159.265625 105.613281 L 157.007813 101.964844 L 158.789063 99.335938 L 161.449219 99.578125 L 165.660156 103.386719 Z M 165.132813 107.699219 "/>
<path style="fill-rule:evenodd;fill:rgb(85.098039%,85.098039%,85.098039%);fill-opacity:1;stroke-width:1.066978;stroke-linecap:butt;stroke-linejoin:round;stroke:rgb(74.901961%,74.901961%,74.901961%);stroke-opacity:1;stroke-miterlimit:10;" d="M 157.007813 101.964844 L 155.160156 99.675781 L 158.789063 99.335938 Z M 157.007813 101.964844 "/>
<path style="fill-rule:evenodd;fill:rgb(85.098039%,85.098039%,85.098039%);fill-opacity:1;stroke-width:1.066978;stroke-linecap:butt;stroke-linejoin:round;stroke:rgb(74.901961%,74.901961%,74.901961%);stroke-opacity:1;stroke-miterlimit:10;" d="M 187.136719 119.183594 L 187.328125 116.988281 L 189.328125 117.027344 Z M 187.136719 119.183594 "/>
<path style="fill-rule:evenodd;fill:rgb(85.098039%,85.098039%,85.098039%);fill-opacity:1;stroke-width:1.066978;stroke-linecap:butt;stroke-linejoin:round;stroke:rgb(74.901961%,74.901961%,74.901961%);stroke-opacity:1;stroke-miterlimit:10;" d="M 204.261719 54.210938 L 197.878906 55.960938 L 198.691406 54.183594 L 200.757813 53.464844 L 204.164063 52.761719 Z M 204.261719 54.210938 "/>
<path style="fill-rule:evenodd;fill:rgb(85.098039%,85.098039%,85.098039%);fill-opacity:1;stroke-width:1.066978;stroke-linecap:butt;stroke-linejoin:round;stroke:rgb(74.901961%,74.901961%,74.901961%);stroke-opacity:1;stroke-miterlimit:10;" d="M 142.054688 11.765625 L 156.417969 11.441406 L 166.539063 12.3125 L 160.4375 13.558594 L 159.679688 16.339844 L 156.230469 19.554688 L 139.292969 23.777344 L 133.855469 29.332031 L 129.5 28.503906 L 127.363281 22.140625 L 129.804688 18.398438 L 128.535156 15.507813 L 119.375 13.734375 Z M 142.054688 11.765625 "/>
<path style="fill-rule:evenodd;fill:rgb(85.098039%,85.098039%,85.098039%);fill-opacity:1;stroke-width:1.066978;stroke-linecap:butt;stroke-linejoin:round;stroke:rgb(74.901961%,74.901961%,74.901961%);stroke-opacity:1;stroke-miterlimit:10;" d="M 65.988281 97.386719 L 63.550781 96.027344 L 68 90.527344 L 67.824219 93.75 L 68.648438 94.019531 L 67.019531 96.21875 Z M 65.988281 97.386719 "/>
<path style="fill-rule:evenodd;fill:rgb(85.098039%,85.098039%,85.098039%);fill-opacity:1;stroke-width:1.066978;stroke-linecap:butt;stroke-linejoin:round;stroke:rgb(74.901961%,74.901961%,74.901961%);stroke-opacity:1;stroke-miterlimit:10;" d="M 102.324219 106.53125 L 105.375 110.640625 L 105.984375 117.648438 L 102.914063 118.652344 L 100.933594 111.96875 Z M 102.324219 106.53125 "/>
<path style="fill-rule:evenodd;fill:rgb(85.098039%,85.098039%,85.098039%);fill-opacity:1;stroke-width:1.066978;stroke-linecap:butt;stroke-linejoin:round;stroke:rgb(74.901961%,74.901961%,74.901961%);stroke-opacity:1;stroke-miterlimit:10;" d="M 69.234375 98.65625 L 68.722656 97.980469 L 67.019531 96.21875 L 68.648438 94.019531 L 74.65625 95.253906 Z M 69.234375 98.65625 "/>
<path style="fill-rule:evenodd;fill:rgb(85.098039%,85.098039%,85.098039%);fill-opacity:1;stroke-width:1.066978;stroke-linecap:butt;stroke-linejoin:round;stroke:rgb(74.901961%,74.901961%,74.901961%);stroke-opacity:1;stroke-miterlimit:10;" d="M 195.65625 47.019531 L 195.980469 48.472656 L 195.765625 51.585938 L 195.664063 51.828125 L 190.210938 47.582031 L 193.160156 46.203125 Z M 195.65625 47.019531 "/>
<path style="fill-rule:evenodd;fill:rgb(85.098039%,85.098039%,85.098039%);fill-opacity:1;stroke-width:1.066978;stroke-linecap:butt;stroke-linejoin:round;stroke:rgb(74.901961%,74.901961%,74.901961%);stroke-opacity:1;stroke-miterlimit:10;" d="M 192.734375 45.730469 L 193.40625 44.015625 L 198.753906 43.613281 L 199.5 44.335938 L 197.117188 46.71875 L 195.65625 47.019531 L 193.160156 46.203125 Z M 192.734375 45.730469 "/>
<path style="fill-rule:evenodd;fill:rgb(85.098039%,85.098039%,85.098039%);fill-opacity:1;stroke-width:1.066978;stroke-linecap:butt;stroke-linejoin:round;stroke:rgb(74.901961%,74.901961%,74.901961%);stroke-opacity:1;stroke-miterlimit:10;" d="M 348.722656 125.40625 L 347.960938 136.601563 L 344.71875 130.210938 Z M 348.722656 125.40625 "/>
<path style="fill-rule:evenodd;fill:rgb(85.098039%,85.098039%,85.098039%);fill-opacity:1;stroke-width:1.066978;stroke-linecap:butt;stroke-linejoin:round;stroke:rgb(74.901961%,74.901961%,74.901961%);stroke-opacity:1;stroke-miterlimit:10;" d="M 310.242188 117.464844 L 316.351563 118.457031 L 320.226563 113.796875 L 319.929688 122.308594 L 317.949219 127.226563 L 310.890625 125.980469 Z M 310.242188 117.464844 "/>
<path style="fill-rule:evenodd;fill:rgb(85.098039%,85.098039%,85.098039%);fill-opacity:1;stroke-width:1.066978;stroke-linecap:butt;stroke-linejoin:round;stroke:rgb(74.901961%,74.901961%,74.901961%);stroke-opacity:1;stroke-miterlimit:10;" d="M 305.277344 131 L 301.4375 128.195313 L 296.652344 117.78125 L 300.402344 117.332031 L 305.832031 126.199219 Z M 305.277344 131 "/>
<path style="fill-rule:evenodd;fill:rgb(85.098039%,85.098039%,85.098039%);fill-opacity:1;stroke-width:1.066978;stroke-linecap:butt;stroke-linejoin:round;stroke:rgb(74.901961%,74.901961%,74.901961%);stroke-opacity:1;stroke-miterlimit:10;" d="M 263.835938 62.132813 L 266.425781 68.265625 L 269.664063 70.359375 L 275.722656 75.867188 L 278.683594 74.023438 L 279.707031 74.949219 L 282.914063 74.191406 L 285.667969 71.792969 L 289.3125 73.410156 L 286.03125 83.5 L 281.683594 83.472656 L 272.695313 93.730469 L 272.996094 103.128906 L 269.167969 105.621094 L 264.460938 93.578125 L 262.28125 84.628906 L 259.804688 85.417969 L 256.421875 80.789063 L 261.625 69.105469 L 260.042969 63.269531 Z M 263.835938 62.132813 "/>
<path style="fill-rule:evenodd;fill:rgb(85.098039%,85.098039%,85.098039%);fill-opacity:1;stroke-width:1.066978;stroke-linecap:butt;stroke-linejoin:round;stroke:rgb(74.901961%,74.901961%,74.901961%);stroke-opacity:1;stroke-miterlimit:10;" d="M 236.1875 59.558594 L 242.101563 59.238281 L 244.910156 61.894531 L 246.261719 70.917969 L 249.105469 74.820313 L 248.179688 78.53125 L 243.1875 77.460938 L 235.816406 74.039063 L 231.929688 70.765625 L 227.390625 64.464844 L 225.894531 59.601563 L 225.261719 55.832031 L 227.027344 57.261719 L 227.421875 57.21875 L 230.207031 57.886719 Z M 236.1875 59.558594 "/>
<path style="fill-rule:evenodd;fill:rgb(85.098039%,85.098039%,85.098039%);fill-opacity:1;stroke-width:1.066978;stroke-linecap:butt;stroke-linejoin:round;stroke:rgb(74.901961%,74.901961%,74.901961%);stroke-opacity:1;stroke-miterlimit:10;" d="M 231.929688 70.765625 L 231.226563 70.6875 L 229.773438 72.074219 L 220.628906 67.261719 L 219.933594 65.371094 L 223.148438 59.511719 L 225.894531 59.601563 L 227.390625 64.464844 Z M 231.929688 70.765625 "/>
<path style="fill-rule:evenodd;fill:rgb(85.098039%,85.098039%,85.098039%);fill-opacity:1;stroke-width:1.066978;stroke-linecap:butt;stroke-linejoin:round;stroke:rgb(74.901961%,74.901961%,74.901961%);stroke-opacity:1;stroke-miterlimit:10;" d="M 216.527344 66.410156 L 216.382813 66.898438 L 216.363281 68.308594 L 216.132813 71.4375 L 215.101563 68.730469 L 215.78125 65.816406 L 216.542969 65.527344 Z M 216.527344 66.410156 "/>
<path style="fill-rule:evenodd;fill:rgb(85.098039%,85.098039%,85.098039%);fill-opacity:1;stroke-width:1.066978;stroke-linecap:butt;stroke-linejoin:round;stroke:rgb(74.901961%,74.901961%,74.901961%);stroke-opacity:1;stroke-miterlimit:10;" d="M 190.214844 46.195313 L 190.441406 47.457031 L 183.550781 50.105469 L 182.800781 46.90625 L 186.59375 45.671875 Z M 190.214844 46.195313 "/>
<path style="fill-rule:evenodd;fill:rgb(85.098039%,85.098039%,85.098039%);fill-opacity:1;stroke-width:1.066978;stroke-linecap:butt;stroke-linejoin:round;stroke:rgb(74.901961%,74.901961%,74.901961%);stroke-opacity:1;stroke-miterlimit:10;" d="M 216.382813 66.898438 L 216.527344 66.410156 L 219.933594 65.371094 L 220.628906 67.261719 L 216.191406 71.667969 L 216.132813 71.4375 L 216.363281 68.308594 Z M 216.382813 66.898438 "/>
<path style="fill-rule:evenodd;fill:rgb(85.098039%,85.098039%,85.098039%);fill-opacity:1;stroke-width:1.066978;stroke-linecap:butt;stroke-linejoin:round;stroke:rgb(74.901961%,74.901961%,74.901961%);stroke-opacity:1;stroke-miterlimit:10;" d="M 253.242188 52.132813 L 249.042969 53.710938 L 238.3125 47.464844 L 237.144531 53.507813 L 233.171875 52.824219 L 227.941406 46.347656 L 224.46875 43.652344 L 227.75 39.347656 L 233.304688 40.722656 L 237.613281 36.445313 L 244.550781 34.769531 L 258.398438 40.410156 L 267.066406 42.5625 L 261.730469 48.390625 L 263.390625 52.011719 L 256.316406 50.664063 Z M 253.242188 52.132813 "/>
<path style="fill-rule:evenodd;fill:rgb(85.098039%,85.098039%,85.098039%);fill-opacity:1;stroke-width:1.066978;stroke-linecap:butt;stroke-linejoin:round;stroke:rgb(74.901961%,74.901961%,74.901961%);stroke-opacity:1;stroke-miterlimit:10;" d="M 226.578125 123.824219 L 223.59375 128.980469 L 217.144531 122.5625 L 218.527344 117.640625 L 217.226563 113.601563 L 218.78125 111.441406 L 224.0625 115.027344 L 226.871094 114.171875 Z M 226.578125 123.824219 "/>
<path style="fill-rule:evenodd;fill:rgb(85.098039%,85.098039%,85.098039%);fill-opacity:1;stroke-width:1.066978;stroke-linecap:butt;stroke-linejoin:round;stroke:rgb(74.901961%,74.901961%,74.901961%);stroke-opacity:1;stroke-miterlimit:10;" d="M 253.242188 52.132813 L 256.316406 50.664063 L 263.390625 52.011719 L 257.492188 56.246094 L 254.183594 55.054688 Z M 253.242188 52.132813 "/>
<path style="fill-rule:evenodd;fill:rgb(85.098039%,85.098039%,85.098039%);fill-opacity:1;stroke-width:1.066978;stroke-linecap:butt;stroke-linejoin:round;stroke:rgb(74.901961%,74.901961%,74.901961%);stroke-opacity:1;stroke-miterlimit:10;" d="M 300.4375 100.011719 L 303.210938 96.476563 L 305.855469 96.59375 L 302.867188 102.910156 Z M 300.4375 100.011719 "/>
<path style="fill-rule:evenodd;fill:rgb(85.098039%,85.098039%,85.098039%);fill-opacity:1;stroke-width:1.066978;stroke-linecap:butt;stroke-linejoin:round;stroke:rgb(74.901961%,74.901961%,74.901961%);stroke-opacity:1;stroke-miterlimit:10;" d="M 198.089844 52.722656 L 197.425781 51.671875 L 197.601563 51.351563 L 199.121094 52.164063 Z M 198.089844 52.722656 "/>
<path style="fill-rule:evenodd;fill:rgb(85.098039%,85.098039%,85.098039%);fill-opacity:1;stroke-width:1.066978;stroke-linecap:butt;stroke-linejoin:round;stroke:rgb(74.901961%,74.901961%,74.901961%);stroke-opacity:1;stroke-miterlimit:10;" d="M 231.226563 70.6875 L 232.042969 72.945313 L 229.773438 72.074219 Z M 231.226563 70.6875 "/>
<path style="fill-rule:evenodd;fill:rgb(85.098039%,85.098039%,85.098039%);fill-opacity:1;stroke-width:1.066978;stroke-linecap:butt;stroke-linejoin:round;stroke:rgb(74.901961%,74.901961%,74.901961%);stroke-opacity:1;stroke-miterlimit:10;" d="M 303.210938 96.476563 L 300.679688 89.800781 L 295.425781 86.179688 L 296.378906 84.496094 L 297.21875 82.800781 L 300.492188 85.617188 L 305.855469 96.59375 Z M 303.210938 96.476563 "/>
<path style="fill-rule:evenodd;fill:rgb(85.098039%,85.098039%,85.098039%);fill-opacity:1;stroke-width:1.066978;stroke-linecap:butt;stroke-linejoin:round;stroke:rgb(74.901961%,74.901961%,74.901961%);stroke-opacity:1;stroke-miterlimit:10;" d="M 216.542969 65.527344 L 215.78125 65.816406 L 216.5 63.425781 Z M 216.542969 65.527344 "/>
<path style="fill-rule:evenodd;fill:rgb(85.098039%,85.098039%,85.098039%);fill-opacity:1;stroke-width:1.066978;stroke-linecap:butt;stroke-linejoin:round;stroke:rgb(74.901961%,74.901961%,74.901961%);stroke-opacity:1;stroke-miterlimit:10;" d="M 166 113.40625 L 161.449219 109.242188 L 162.949219 106.464844 L 165.132813 107.699219 Z M 166 113.40625 "/>
<path style="fill-rule:evenodd;fill:rgb(85.098039%,85.098039%,85.098039%);fill-opacity:1;stroke-width:1.066978;stroke-linecap:butt;stroke-linejoin:round;stroke:rgb(74.901961%,74.901961%,74.901961%);stroke-opacity:1;stroke-miterlimit:10;" d="M 193.148438 82.148438 L 189.726563 81.152344 L 186.453125 76.886719 L 186.476563 70.164063 L 188.652344 65.746094 L 197.628906 70.230469 L 199.441406 66.414063 L 204.535156 68.183594 L 205.296875 83.566406 L 204.089844 87.570313 L 194.320313 81.253906 Z M 193.148438 82.148438 "/>
<path style="fill-rule:evenodd;fill:rgb(85.098039%,85.098039%,85.098039%);fill-opacity:1;stroke-width:1.066978;stroke-linecap:butt;stroke-linejoin:round;stroke:rgb(74.901961%,74.901961%,74.901961%);stroke-opacity:1;stroke-miterlimit:10;" d="M 198.402344 36.050781 L 196.777344 35.003906 L 196.417969 33.996094 L 201.917969 34.492188 L 199.242188 36.5625 Z M 198.402344 36.050781 "/>
<path style="fill-rule:evenodd;fill:rgb(85.098039%,85.098039%,85.098039%);fill-opacity:1;stroke-width:1.066978;stroke-linecap:butt;stroke-linejoin:round;stroke:rgb(74.901961%,74.901961%,74.901961%);stroke-opacity:1;stroke-miterlimit:10;" d="M 181.765625 41.363281 L 181.945313 42.234375 L 181.40625 42.148438 Z M 181.765625 41.363281 "/>
<path style="fill-rule:evenodd;fill:rgb(85.098039%,85.098039%,85.098039%);fill-opacity:1;stroke-width:1.066978;stroke-linecap:butt;stroke-linejoin:round;stroke:rgb(74.901961%,74.901961%,74.901961%);stroke-opacity:1;stroke-miterlimit:10;" d="M 196.417969 33.996094 L 199.289063 31.929688 L 202.28125 32.300781 L 203.46875 33.832031 L 201.917969 34.492188 Z M 196.417969 33.996094 "/>
<path style="fill-rule:evenodd;fill:rgb(85.098039%,85.098039%,85.098039%);fill-opacity:1;stroke-width:1.066978;stroke-linecap:butt;stroke-linejoin:round;stroke:rgb(74.901961%,74.901961%,74.901961%);stroke-opacity:1;stroke-miterlimit:10;" d="M 173.003906 62.628906 L 173.964844 67.101563 L 165.3125 74.375 L 162.078125 75.617188 L 157.847656 84.390625 L 155.128906 84.519531 L 158.460938 76.628906 L 164.351563 70.753906 L 165.542969 65.585938 L 168.746094 61.726563 Z M 173.003906 62.628906 "/>
<path style="fill-rule:evenodd;fill:rgb(85.098039%,85.098039%,85.098039%);fill-opacity:1;stroke-width:1.066978;stroke-linecap:butt;stroke-linejoin:round;stroke:rgb(74.901961%,74.901961%,74.901961%);stroke-opacity:1;stroke-miterlimit:10;" d="M 235.796875 142.316406 L 236.644531 146.984375 L 231.175781 163.09375 L 227.554688 163.167969 L 227.070313 158.378906 L 228.519531 150.65625 Z M 235.796875 142.316406 "/>
<path style="fill-rule:evenodd;fill:rgb(85.098039%,85.098039%,85.098039%);fill-opacity:1;stroke-width:1.066978;stroke-linecap:butt;stroke-linejoin:round;stroke:rgb(74.901961%,74.901961%,74.901961%);stroke-opacity:1;stroke-miterlimit:10;" d="M 60.910156 77.25 L 58.835938 82.835938 L 60.117188 88.824219 L 69.179688 89.371094 L 68 90.527344 L 63.550781 96.027344 L 53.742188 91.59375 L 49.328125 88.007813 L 49.234375 82.292969 L 44.53125 72.304688 L 40.996094 71.351563 L 40.738281 66.679688 L 47.125 68.550781 L 52.554688 67.894531 L 53.878906 71.324219 L 57.867188 71.628906 Z M 60.910156 77.25 "/>
<path style="fill-rule:evenodd;fill:rgb(85.098039%,85.098039%,85.098039%);fill-opacity:1;stroke-width:1.066978;stroke-linecap:butt;stroke-linejoin:round;stroke:rgb(74.901961%,74.901961%,74.901961%);stroke-opacity:1;stroke-miterlimit:10;" d="M 198.089844 52.722656 L 199.121094 52.164063 L 199.992188 52.054688 L 200.757813 53.464844 L 198.691406 54.183594 Z M 198.089844 52.722656 "/>
<path style="fill-rule:evenodd;fill:rgb(85.098039%,85.098039%,85.098039%);fill-opacity:1;stroke-width:1.066978;stroke-linecap:butt;stroke-linejoin:round;stroke:rgb(74.901961%,74.901961%,74.901961%);stroke-opacity:1;stroke-miterlimit:10;" d="M 160.703125 95.894531 L 168.761719 94.398438 L 167.835938 78.730469 L 169.648438 78.699219 L 180.597656 88.277344 L 179.875 94.289063 L 175.925781 95.367188 L 173.042969 95.992188 L 168.871094 103.105469 L 165.660156 103.386719 L 161.449219 99.578125 Z M 160.703125 95.894531 "/>
<path style="fill-rule:evenodd;fill:rgb(85.098039%,85.098039%,85.098039%);fill-opacity:1;stroke-width:1.066978;stroke-linecap:butt;stroke-linejoin:round;stroke:rgb(74.901961%,74.901961%,74.901961%);stroke-opacity:1;stroke-miterlimit:10;" d="M 295.890625 103.855469 L 293.554688 93.390625 L 286.070313 85.761719 L 286.03125 83.5 L 289.3125 73.410156 L 291.207031 74.613281 L 293.839844 83.371094 L 296.378906 84.496094 L 295.425781 86.179688 L 293.511719 90.929688 L 296.835938 100.511719 Z M 295.890625 103.855469 "/>
<path style="fill-rule:evenodd;fill:rgb(85.098039%,85.098039%,85.098039%);fill-opacity:1;stroke-width:1.066978;stroke-linecap:butt;stroke-linejoin:round;stroke:rgb(74.901961%,74.901961%,74.901961%);stroke-opacity:1;stroke-miterlimit:10;" d="M 196.75 52.6875 L 195.664063 51.828125 L 195.765625 51.585938 L 196.378906 50.34375 L 197.601563 51.351563 L 197.425781 51.671875 Z M 196.75 52.6875 "/>
<path style="fill-rule:evenodd;fill:rgb(85.098039%,85.098039%,85.098039%);fill-opacity:1;stroke-width:1.066978;stroke-linecap:butt;stroke-linejoin:round;stroke:rgb(74.901961%,74.901961%,74.901961%);stroke-opacity:1;stroke-miterlimit:10;" d="M 267.425781 42.453125 L 271.082031 40.488281 L 277.078125 41.890625 L 291.566406 42.675781 L 297.226563 41.675781 L 300.726563 45.972656 L 295.023438 51.769531 L 290.949219 53.09375 L 280.785156 51.476563 L 273.347656 47.878906 Z M 267.425781 42.453125 "/>
<path style="fill-rule:evenodd;fill:rgb(85.098039%,85.098039%,85.098039%);fill-opacity:1;stroke-width:1.066978;stroke-linecap:butt;stroke-linejoin:round;stroke:rgb(74.901961%,74.901961%,74.901961%);stroke-opacity:1;stroke-miterlimit:10;" d="M 217.609375 140.699219 L 224.710938 138.648438 L 224.9375 146.082031 L 223.144531 149.5 L 217.214844 154.617188 L 217.519531 161.761719 L 214.074219 166.003906 L 213.183594 165.992188 L 213.019531 164.554688 L 212.660156 158.695313 L 215.164063 149.488281 L 212.140625 147.457031 L 215.816406 144.863281 Z M 217.609375 140.699219 "/>
<path style="fill-rule:evenodd;fill:rgb(85.098039%,85.098039%,85.098039%);fill-opacity:1;stroke-width:1.066978;stroke-linecap:butt;stroke-linejoin:round;stroke:rgb(74.901961%,74.901961%,74.901961%);stroke-opacity:1;stroke-miterlimit:10;" d="M 160.703125 95.894531 L 155.550781 93.332031 L 155.054688 85.214844 L 160.015625 84.675781 L 161.355469 77.148438 L 165.28125 74.792969 L 169.648438 78.699219 L 167.835938 78.730469 L 168.761719 94.398438 Z M 160.703125 95.894531 "/>
<path style="fill-rule:evenodd;fill:rgb(85.098039%,85.098039%,85.098039%);fill-opacity:1;stroke-width:1.066978;stroke-linecap:butt;stroke-linejoin:round;stroke:rgb(74.901961%,74.901961%,74.901961%);stroke-opacity:1;stroke-miterlimit:10;" d="M 217.609375 140.699219 L 215.816406 144.863281 L 215.53125 136.792969 Z M 217.609375 140.699219 "/>
<path style="fill-rule:evenodd;fill:rgb(85.098039%,85.098039%,85.098039%);fill-opacity:1;stroke-width:1.066978;stroke-linecap:butt;stroke-linejoin:round;stroke:rgb(74.901961%,74.901961%,74.901961%);stroke-opacity:1;stroke-miterlimit:10;" d="M 320.226563 113.796875 L 316.351563 118.457031 L 310.242188 117.464844 L 315.679688 113.128906 L 317.132813 111.542969 Z M 320.226563 113.796875 "/>
<path style="fill-rule:evenodd;fill:rgb(85.098039%,85.098039%,85.098039%);fill-opacity:1;stroke-width:1.066978;stroke-linecap:butt;stroke-linejoin:round;stroke:rgb(74.901961%,74.901961%,74.901961%);stroke-opacity:1;stroke-miterlimit:10;" d="M 194.566406 168.941406 L 192.476563 158.464844 L 189.632813 150.472656 L 203.476563 150.84375 L 205.722656 151.078125 L 200.65625 152.066406 L 199.015625 162.8125 L 198.722656 168.757813 Z M 194.566406 168.941406 "/>
<path style="fill-rule:evenodd;fill:rgb(85.098039%,85.098039%,85.098039%);fill-opacity:1;stroke-width:1.066978;stroke-linecap:butt;stroke-linejoin:round;stroke:rgb(74.901961%,74.901961%,74.901961%);stroke-opacity:1;stroke-miterlimit:10;" d="M 178.09375 100.433594 L 175.925781 95.367188 L 179.875 94.289063 L 180.597656 88.277344 L 189.726563 81.152344 L 193.148438 82.148438 L 194.527344 86.230469 L 193.109375 98.871094 L 192.738281 99.507813 L 180.777344 97.363281 L 179.871094 100.910156 Z M 178.09375 100.433594 "/>
<path style="fill-rule:evenodd;fill:rgb(85.098039%,85.098039%,85.098039%);fill-opacity:1;stroke-width:1.066978;stroke-linecap:butt;stroke-linejoin:round;stroke:rgb(74.901961%,74.901961%,74.901961%);stroke-opacity:1;stroke-miterlimit:10;" d="M 185.90625 112.703125 L 182.710938 113.582031 L 178.769531 110.148438 L 179.871094 100.910156 L 180.777344 97.363281 L 192.738281 99.507813 L 189.867188 108.910156 Z M 185.90625 112.703125 "/>
<path style="fill-rule:evenodd;fill:rgb(85.098039%,85.098039%,85.098039%);fill-opacity:1;stroke-width:1.066978;stroke-linecap:butt;stroke-linejoin:round;stroke:rgb(74.901961%,74.901961%,74.901961%);stroke-opacity:1;stroke-miterlimit:10;" d="M 70.894531 101.882813 L 69.234375 98.65625 L 74.65625 95.253906 L 73.382813 102.136719 Z M 70.894531 101.882813 "/>
<path style="fill-rule:evenodd;fill:rgb(85.098039%,85.098039%,85.098039%);fill-opacity:1;stroke-width:1.066978;stroke-linecap:butt;stroke-linejoin:round;stroke:rgb(74.901961%,74.901961%,74.901961%);stroke-opacity:1;stroke-miterlimit:10;" d="M 182.484375 37.09375 L 181.851563 40.488281 L 178.890625 39.789063 Z M 182.484375 37.09375 "/>
<path style="fill-rule:evenodd;fill:rgb(85.098039%,85.098039%,85.098039%);fill-opacity:1;stroke-width:1.066978;stroke-linecap:butt;stroke-linejoin:round;stroke:rgb(74.901961%,74.901961%,74.901961%);stroke-opacity:1;stroke-miterlimit:10;" d="M 202.429688 20.039063 L 200.402344 20.464844 L 193.464844 20.425781 L 186.582031 26.105469 L 186.171875 30.71875 L 180.171875 27.3125 L 185.136719 24.730469 L 192.046875 19.816406 Z M 202.429688 20.039063 "/>
<path style="fill-rule:evenodd;fill:rgb(85.098039%,85.098039%,85.098039%);fill-opacity:1;stroke-width:1.066978;stroke-linecap:butt;stroke-linejoin:round;stroke:rgb(74.901961%,74.901961%,74.901961%);stroke-opacity:1;stroke-miterlimit:10;" d="M 278.683594 74.023438 L 275.722656 75.867188 L 269.664063 70.359375 Z M 278.683594 74.023438 "/>
<path style="fill-rule:evenodd;fill:rgb(85.098039%,85.098039%,85.098039%);fill-opacity:1;stroke-width:1.066978;stroke-linecap:butt;stroke-linejoin:round;stroke:rgb(74.901961%,74.901961%,74.901961%);stroke-opacity:1;stroke-miterlimit:10;" d="M 366.546875 187.777344 L 356.136719 195.832031 L 355.449219 193.726563 Z M 366.546875 187.777344 "/>
<path style="fill-rule:evenodd;fill:rgb(85.098039%,85.098039%,85.098039%);fill-opacity:1;stroke-width:1.066978;stroke-linecap:butt;stroke-linejoin:round;stroke:rgb(74.901961%,74.901961%,74.901961%);stroke-opacity:1;stroke-miterlimit:10;" d="M 239.65625 92.464844 L 237.992188 88.535156 L 241.4375 86.871094 L 241.210938 82.402344 L 242.183594 78.78125 L 246.765625 83.054688 L 244.941406 88.421875 Z M 239.65625 92.464844 "/>
<path style="fill-rule:evenodd;fill:rgb(85.098039%,85.098039%,85.098039%);fill-opacity:1;stroke-width:1.066978;stroke-linecap:butt;stroke-linejoin:round;stroke:rgb(74.901961%,74.901961%,74.901961%);stroke-opacity:1;stroke-miterlimit:10;" d="M 260.128906 59.65625 L 263.835938 62.132813 L 260.042969 63.269531 L 261.625 69.105469 L 256.421875 80.789063 L 253.859375 77.96875 L 248.179688 78.53125 L 249.105469 74.820313 L 246.261719 70.917969 L 252.605469 70.824219 L 255.417969 67.664063 L 256.644531 60.59375 Z M 260.128906 59.65625 "/>
<path style="fill-rule:evenodd;fill:rgb(85.098039%,85.098039%,85.098039%);fill-opacity:1;stroke-width:1.066978;stroke-linecap:butt;stroke-linejoin:round;stroke:rgb(74.901961%,74.901961%,74.901961%);stroke-opacity:1;stroke-miterlimit:10;" d="M 80.035156 108.492188 L 73.902344 106.777344 L 74.5625 104.480469 L 80.816406 106.011719 Z M 80.035156 108.492188 "/>
<path style="fill-rule:evenodd;fill:rgb(85.098039%,85.098039%,85.098039%);fill-opacity:1;stroke-width:1.066978;stroke-linecap:butt;stroke-linejoin:round;stroke:rgb(74.901961%,74.901961%,74.901961%);stroke-opacity:1;stroke-miterlimit:10;" d="M 91.53125 150.941406 L 90.730469 152.226563 L 83.253906 146.007813 L 77.730469 133.304688 L 76.828125 126.792969 L 79.839844 126.097656 L 82.816406 121.1875 L 89.648438 128.328125 L 86.019531 130.007813 L 84.832031 133.871094 L 90.621094 139.734375 L 91.871094 142.472656 Z M 91.53125 150.941406 "/>
<path style="fill-rule:evenodd;fill:rgb(85.098039%,85.098039%,85.098039%);fill-opacity:1;stroke-width:1.066978;stroke-linecap:butt;stroke-linejoin:round;stroke:rgb(74.901961%,74.901961%,74.901961%);stroke-opacity:1;stroke-miterlimit:10;" d="M 347.960938 136.601563 L 348.722656 125.40625 L 353.039063 127.578125 L 352.769531 134.054688 Z M 347.960938 136.601563 "/>
<path style="fill-rule:evenodd;fill:rgb(85.098039%,85.098039%,85.098039%);fill-opacity:1;stroke-width:1.066978;stroke-linecap:butt;stroke-linejoin:round;stroke:rgb(74.901961%,74.901961%,74.901961%);stroke-opacity:1;stroke-miterlimit:10;" d="M 191.003906 40.097656 L 189.78125 36.753906 L 195.289063 35.929688 L 198.402344 36.050781 L 199.242188 36.5625 L 199.71875 39.492188 L 199.144531 42.734375 L 195.199219 42.191406 Z M 191.003906 40.097656 "/>
<path style="fill-rule:evenodd;fill:rgb(85.098039%,85.098039%,85.098039%);fill-opacity:1;stroke-width:1.066978;stroke-linecap:butt;stroke-linejoin:round;stroke:rgb(74.901961%,74.901961%,74.901961%);stroke-opacity:1;stroke-miterlimit:10;" d="M 318.542969 51.949219 L 318.839844 52.199219 L 318.96875 57.453125 L 317.160156 58.734375 L 313.445313 55.515625 Z M 318.542969 51.949219 "/>
<path style="fill-rule:evenodd;fill:rgb(85.098039%,85.098039%,85.098039%);fill-opacity:1;stroke-width:1.066978;stroke-linecap:butt;stroke-linejoin:round;stroke:rgb(74.901961%,74.901961%,74.901961%);stroke-opacity:1;stroke-miterlimit:10;" d="M 165.546875 52.683594 L 167.074219 59.710938 L 164.824219 57.269531 Z M 165.546875 52.683594 "/>
<path style="fill-rule:evenodd;fill:rgb(85.098039%,85.098039%,85.098039%);fill-opacity:1;stroke-width:1.066978;stroke-linecap:butt;stroke-linejoin:round;stroke:rgb(74.901961%,74.901961%,74.901961%);stroke-opacity:1;stroke-miterlimit:10;" d="M 100.730469 158.691406 L 101.296875 154.367188 L 105.734375 155.269531 L 109.238281 159.359375 L 111.019531 164.386719 L 103.261719 161.367188 Z M 100.730469 158.691406 "/>
<path style="fill-rule:evenodd;fill:rgb(85.098039%,85.098039%,85.098039%);fill-opacity:1;stroke-width:1.066978;stroke-linecap:butt;stroke-linejoin:round;stroke:rgb(74.901961%,74.901961%,74.901961%);stroke-opacity:1;stroke-miterlimit:10;" d="M 199.5 44.335938 L 203.574219 43.882813 L 205.816406 47.601563 L 207.328125 47.871094 L 206.503906 50.085938 L 200.015625 49.34375 L 197.117188 46.71875 Z M 199.5 44.335938 "/>
<path style="fill-rule:evenodd;fill:rgb(85.098039%,85.098039%,85.098039%);fill-opacity:1;stroke-width:1.066978;stroke-linecap:butt;stroke-linejoin:round;stroke:rgb(74.901961%,74.901961%,74.901961%);stroke-opacity:1;stroke-miterlimit:10;" d="M 198.402344 36.050781 L 195.289063 35.929688 L 196.777344 35.003906 Z M 198.402344 36.050781 "/>
<path style="fill-rule:evenodd;fill:rgb(85.098039%,85.098039%,85.098039%);fill-opacity:1;stroke-width:1.066978;stroke-linecap:butt;stroke-linejoin:round;stroke:rgb(74.901961%,74.901961%,74.901961%);stroke-opacity:1;stroke-miterlimit:10;" d="M 318.839844 52.199219 L 318.542969 51.949219 L 314.164063 44.460938 L 304.085938 37.953125 L 297.226563 41.675781 L 291.566406 42.675781 L 277.078125 41.890625 L 271.082031 40.488281 L 267.425781 42.453125 L 267.066406 42.5625 L 258.398438 40.410156 L 244.550781 34.769531 L 237.613281 36.445313 L 233.304688 40.722656 L 227.75 39.347656 L 224.46875 43.652344 L 227.941406 46.347656 L 225.921875 48.820313 L 228.855469 52.789063 L 226.449219 52.714844 L 218.960938 50.46875 L 216.128906 45.390625 L 217.367188 42.054688 L 208.101563 38.828125 L 203.46875 33.832031 L 202.28125 32.300781 L 202.46875 30.023438 L 202.296875 28.886719 L 204.695313 26.90625 L 200.402344 20.464844 L 202.429688 20.039063 L 213.292969 22.804688 L 226.863281 20.625 L 242.71875 17.59375 L 245.703125 15.777344 L 262.914063 14.742188 L 269.265625 16.84375 L 292.242188 17.394531 L 315.191406 20.140625 L 332.632813 20.550781 L 339.886719 24.246094 L 342.765625 26.253906 L 338.867188 29.070313 L 332.703125 29.585938 L 338.328125 35.410156 L 330.941406 34.773438 L 322.367188 30.804688 L 313.238281 30.511719 L 311.355469 35.5625 L 319.480469 37.582031 L 323.109375 43.582031 L 322.308594 50.523438 Z M 318.839844 52.199219 "/>
<path style="fill-rule:evenodd;fill:rgb(85.098039%,85.098039%,85.098039%);fill-opacity:1;stroke-width:1.066978;stroke-linecap:butt;stroke-linejoin:round;stroke:rgb(74.901961%,74.901961%,74.901961%);stroke-opacity:1;stroke-miterlimit:10;" d="M 212.859375 122.878906 L 212.910156 125.085938 L 211.132813 125.816406 L 211.828125 123.234375 Z M 212.859375 122.878906 "/>
<path style="fill-rule:evenodd;fill:rgb(85.098039%,85.098039%,85.098039%);fill-opacity:1;stroke-width:1.066978;stroke-linecap:butt;stroke-linejoin:round;stroke:rgb(74.901961%,74.901961%,74.901961%);stroke-opacity:1;stroke-miterlimit:10;" d="M 165.3125 74.375 L 165.28125 74.792969 L 161.355469 77.148438 L 160.015625 84.675781 L 155.054688 85.214844 L 155.128906 84.519531 L 157.847656 84.390625 L 162.078125 75.617188 Z M 165.3125 74.375 "/>
<path style="fill-rule:evenodd;fill:rgb(85.098039%,85.098039%,85.098039%);fill-opacity:1;stroke-width:1.066978;stroke-linecap:butt;stroke-linejoin:round;stroke:rgb(74.901961%,74.901961%,74.901961%);stroke-opacity:1;stroke-miterlimit:10;" d="M 227.203125 92.976563 L 222.257813 84.734375 L 216.191406 71.667969 L 220.628906 67.261719 L 229.773438 72.074219 L 232.042969 72.945313 L 235.605469 79.058594 L 236.316406 79.265625 L 236.613281 79.886719 L 241.210938 82.402344 L 241.4375 86.871094 L 237.992188 88.535156 L 232.238281 91.964844 Z M 227.203125 92.976563 "/>
<path style="fill-rule:evenodd;fill:rgb(85.098039%,85.098039%,85.098039%);fill-opacity:1;stroke-width:1.066978;stroke-linecap:butt;stroke-linejoin:round;stroke:rgb(74.901961%,74.901961%,74.901961%);stroke-opacity:1;stroke-miterlimit:10;" d="M 216.992188 104.65625 L 216.824219 104.621094 L 216.820313 103.769531 L 216.65625 103.183594 L 216.003906 102.511719 L 215 101.894531 L 213.785156 104.0625 L 207.835938 104.503906 L 206.089844 103.273438 L 205.488281 105.589844 L 205.074219 105.914063 L 204.699219 106.101563 L 204.601563 106.019531 L 203.363281 101.789063 L 204.089844 87.570313 L 205.296875 83.566406 L 219.457031 83.566406 L 221.757813 90.207031 L 219.6875 96.222656 L 216.984375 104.453125 Z M 216.992188 104.65625 "/>
<path style="fill-rule:evenodd;fill:rgb(85.098039%,85.098039%,85.098039%);fill-opacity:1;stroke-width:1.066978;stroke-linecap:butt;stroke-linejoin:round;stroke:rgb(74.901961%,74.901961%,74.901961%);stroke-opacity:1;stroke-miterlimit:10;" d="M 216.992188 104.65625 L 217.042969 105.988281 L 218.78125 111.441406 L 217.226563 113.601563 L 213.34375 114.878906 L 209.0625 111.910156 L 205.546875 106.769531 L 204.699219 106.101563 L 205.074219 105.914063 L 205.488281 105.589844 L 206.089844 103.273438 L 207.835938 104.503906 L 213.785156 104.0625 L 215 101.894531 L 216.003906 102.511719 L 216.65625 103.183594 L 216.820313 103.769531 L 216.824219 104.621094 Z M 216.992188 104.65625 "/>
<path style="fill-rule:evenodd;fill:rgb(85.098039%,85.098039%,85.098039%);fill-opacity:1;stroke-width:1.066978;stroke-linecap:butt;stroke-linejoin:round;stroke:rgb(74.901961%,74.901961%,74.901961%);stroke-opacity:1;stroke-miterlimit:10;" d="M 155.15625 97.621094 L 155.550781 93.332031 L 160.703125 95.894531 L 161.449219 99.578125 L 158.789063 99.335938 L 155.160156 99.675781 L 154.984375 98.375 Z M 155.15625 97.621094 "/>
<path style="fill-rule:evenodd;fill:rgb(85.098039%,85.098039%,85.098039%);fill-opacity:1;stroke-width:1.066978;stroke-linecap:butt;stroke-linejoin:round;stroke:rgb(74.901961%,74.901961%,74.901961%);stroke-opacity:1;stroke-miterlimit:10;" d="M 161.449219 109.242188 L 159.265625 105.613281 L 162.949219 106.464844 Z M 161.449219 109.242188 "/>
<path style="fill-rule:evenodd;fill:rgb(85.098039%,85.098039%,85.098039%);fill-opacity:1;stroke-width:1.066978;stroke-linecap:butt;stroke-linejoin:round;stroke:rgb(74.901961%,74.901961%,74.901961%);stroke-opacity:1;stroke-miterlimit:10;" d="M 68.722656 97.980469 L 65.988281 97.386719 L 67.019531 96.21875 Z M 68.722656 97.980469 "/>
<path style="fill-rule:evenodd;fill:rgb(85.098039%,85.098039%,85.098039%);fill-opacity:1;stroke-width:1.066978;stroke-linecap:butt;stroke-linejoin:round;stroke:rgb(74.901961%,74.901961%,74.901961%);stroke-opacity:1;stroke-miterlimit:10;" d="M 233.988281 107.15625 L 228.886719 105.136719 L 227.671875 102.15625 L 228.082031 101.246094 L 235.164063 101.332031 Z M 233.988281 107.15625 "/>
<path style="fill-rule:evenodd;fill:rgb(85.098039%,85.098039%,85.098039%);fill-opacity:1;stroke-width:1.066978;stroke-linecap:butt;stroke-linejoin:round;stroke:rgb(74.901961%,74.901961%,74.901961%);stroke-opacity:1;stroke-miterlimit:10;" d="M 226.578125 123.824219 L 226.871094 114.171875 L 230.65625 112.308594 L 233.988281 107.15625 L 235.164063 101.332031 L 236.089844 109.210938 L 232.679688 116.003906 Z M 226.578125 123.824219 "/>
<path style="fill-rule:evenodd;fill:rgb(85.098039%,85.098039%,85.098039%);fill-opacity:1;stroke-width:1.066978;stroke-linecap:butt;stroke-linejoin:round;stroke:rgb(74.901961%,74.901961%,74.901961%);stroke-opacity:1;stroke-miterlimit:10;" d="M 200.015625 49.34375 L 199.992188 52.054688 L 199.121094 52.164063 L 197.601563 51.351563 L 196.378906 50.34375 L 195.980469 48.472656 L 195.65625 47.019531 L 197.117188 46.71875 Z M 200.015625 49.34375 "/>
<path style="fill-rule:evenodd;fill:rgb(85.098039%,85.098039%,85.098039%);fill-opacity:1;stroke-width:1.066978;stroke-linecap:butt;stroke-linejoin:round;stroke:rgb(74.901961%,74.901961%,74.901961%);stroke-opacity:1;stroke-miterlimit:10;" d="M 105.375 110.640625 L 109.273438 111.011719 L 108.671875 113.667969 L 108.46875 116.941406 L 105.984375 117.648438 Z M 105.375 110.640625 "/>
<path style="fill-rule:evenodd;fill:rgb(85.098039%,85.098039%,85.098039%);fill-opacity:1;stroke-width:1.066978;stroke-linecap:butt;stroke-linejoin:round;stroke:rgb(74.901961%,74.901961%,74.901961%);stroke-opacity:1;stroke-miterlimit:10;" d="M 195.199219 42.191406 L 199.144531 42.734375 L 198.753906 43.613281 L 193.40625 44.015625 L 193.328125 43.382813 Z M 195.199219 42.191406 "/>
<path style="fill-rule:evenodd;fill:rgb(85.098039%,85.098039%,85.098039%);fill-opacity:1;stroke-width:1.066978;stroke-linecap:butt;stroke-linejoin:round;stroke:rgb(74.901961%,74.901961%,74.901961%);stroke-opacity:1;stroke-miterlimit:10;" d="M 190.214844 46.195313 L 192.734375 45.730469 L 193.160156 46.203125 L 190.210938 47.582031 L 190.441406 47.457031 Z M 190.214844 46.195313 "/>
<path style="fill-rule:evenodd;fill:rgb(85.098039%,85.098039%,85.098039%);fill-opacity:1;stroke-width:1.066978;stroke-linecap:butt;stroke-linejoin:round;stroke:rgb(74.901961%,74.901961%,74.901961%);stroke-opacity:1;stroke-miterlimit:10;" d="M 186.171875 30.71875 L 186.582031 26.105469 L 193.464844 20.425781 L 197.0625 23.25 L 192.15625 26.496094 L 193.496094 29.351563 Z M 186.171875 30.71875 "/>
<path style="fill-rule:evenodd;fill:rgb(85.098039%,85.098039%,85.098039%);fill-opacity:1;stroke-width:1.066978;stroke-linecap:butt;stroke-linejoin:round;stroke:rgb(74.901961%,74.901961%,74.901961%);stroke-opacity:1;stroke-miterlimit:10;" d="M 219.933594 65.371094 L 216.527344 66.410156 L 216.542969 65.527344 L 216.5 63.425781 L 216.445313 61.636719 L 223.148438 59.511719 Z M 219.933594 65.371094 "/>
<path style="fill-rule:evenodd;fill:rgb(85.098039%,85.098039%,85.098039%);fill-opacity:1;stroke-width:1.066978;stroke-linecap:butt;stroke-linejoin:round;stroke:rgb(74.901961%,74.901961%,74.901961%);stroke-opacity:1;stroke-miterlimit:10;" d="M 193.109375 98.871094 L 194.527344 86.230469 L 193.148438 82.148438 L 194.320313 81.253906 L 204.089844 87.570313 L 203.363281 101.789063 L 197.46875 107.347656 L 194.191406 108.152344 L 192.527344 104.507813 Z M 193.109375 98.871094 "/>
<path style="fill-rule:evenodd;fill:rgb(85.098039%,85.098039%,85.098039%);fill-opacity:1;stroke-width:1.066978;stroke-linecap:butt;stroke-linejoin:round;stroke:rgb(74.901961%,74.901961%,74.901961%);stroke-opacity:1;stroke-miterlimit:10;" d="M 177.757813 110.347656 L 176.769531 110.714844 L 175.5 102 L 176.566406 102.039063 Z M 177.757813 110.347656 "/>
<path style="fill-rule:evenodd;fill:rgb(85.098039%,85.098039%,85.098039%);fill-opacity:1;stroke-width:1.066978;stroke-linecap:butt;stroke-linejoin:round;stroke:rgb(74.901961%,74.901961%,74.901961%);stroke-opacity:1;stroke-miterlimit:10;" d="M 300.4375 100.011719 L 296.621094 103.804688 L 300.734375 110.210938 L 298.1875 109.796875 L 295.890625 103.855469 L 296.835938 100.511719 L 293.511719 90.929688 L 295.425781 86.179688 L 300.679688 89.800781 L 303.210938 96.476563 Z M 300.4375 100.011719 "/>
<path style="fill-rule:evenodd;fill:rgb(85.098039%,85.098039%,85.098039%);fill-opacity:1;stroke-width:1.066978;stroke-linecap:butt;stroke-linejoin:round;stroke:rgb(74.901961%,74.901961%,74.901961%);stroke-opacity:1;stroke-miterlimit:10;" d="M 254.183594 55.054688 L 257.492188 56.246094 L 259.808594 59.226563 L 251.871094 59.640625 Z M 254.183594 55.054688 "/>
<path style="fill-rule:evenodd;fill:rgb(85.098039%,85.098039%,85.098039%);fill-opacity:1;stroke-width:1.066978;stroke-linecap:butt;stroke-linejoin:round;stroke:rgb(74.901961%,74.901961%,74.901961%);stroke-opacity:1;stroke-miterlimit:10;" d="M 244.910156 61.894531 L 242.101563 59.238281 L 236.1875 59.558594 L 233.171875 52.824219 L 237.144531 53.507813 L 241.636719 53.339844 L 250.3125 59.3125 Z M 244.910156 61.894531 "/>
<path style="fill-rule:evenodd;fill:rgb(85.098039%,85.098039%,85.098039%);fill-opacity:1;stroke-width:1.066978;stroke-linecap:butt;stroke-linejoin:round;stroke:rgb(74.901961%,74.901961%,74.901961%);stroke-opacity:1;stroke-miterlimit:10;" d="M 186.476563 70.164063 L 184.195313 65.425781 L 184.964844 59.9375 L 188.652344 65.746094 Z M 186.476563 70.164063 "/>
<path style="fill-rule:evenodd;fill:rgb(85.098039%,85.098039%,85.098039%);fill-opacity:1;stroke-width:1.066978;stroke-linecap:butt;stroke-linejoin:round;stroke:rgb(74.901961%,74.901961%,74.901961%);stroke-opacity:1;stroke-miterlimit:10;" d="M 221.203125 53.179688 L 223.554688 53.820313 L 225.261719 55.832031 L 225.894531 59.601563 L 223.148438 59.511719 L 216.445313 61.636719 L 206.675781 60.371094 L 204.601563 56.195313 L 207.707031 53.636719 L 214.0625 52.457031 Z M 221.203125 53.179688 "/>
<path style="fill-rule:evenodd;fill:rgb(85.098039%,85.098039%,85.098039%);fill-opacity:1;stroke-width:1.066978;stroke-linecap:butt;stroke-linejoin:round;stroke:rgb(74.901961%,74.901961%,74.901961%);stroke-opacity:1;stroke-miterlimit:10;" d="M 204.261719 54.210938 L 204.164063 52.761719 L 206.199219 52.503906 Z M 204.261719 54.210938 "/>
<path style="fill-rule:evenodd;fill:rgb(85.098039%,85.098039%,85.098039%);fill-opacity:1;stroke-width:1.066978;stroke-linecap:butt;stroke-linejoin:round;stroke:rgb(74.901961%,74.901961%,74.901961%);stroke-opacity:1;stroke-miterlimit:10;" d="M 217.144531 122.5625 L 223.59375 128.980469 L 224.710938 138.648438 L 217.609375 140.699219 L 215.53125 136.792969 L 213.097656 135.269531 L 211.492188 128.675781 L 212.910156 125.085938 L 212.859375 122.878906 Z M 217.144531 122.5625 "/>
<path style="fill-rule:evenodd;fill:rgb(85.098039%,85.098039%,85.098039%);fill-opacity:1;stroke-width:1.066978;stroke-linecap:butt;stroke-linejoin:round;stroke:rgb(74.901961%,74.901961%,74.901961%);stroke-opacity:1;stroke-miterlimit:10;" d="M 212.859375 122.878906 L 211.828125 123.234375 L 213.34375 114.878906 L 217.226563 113.601563 L 218.527344 117.640625 L 217.144531 122.5625 Z M 212.859375 122.878906 "/>
<path style="fill-rule:evenodd;fill:rgb(85.098039%,85.098039%,85.098039%);fill-opacity:1;stroke-width:1.066978;stroke-linecap:butt;stroke-linejoin:round;stroke:rgb(74.901961%,74.901961%,74.901961%);stroke-opacity:1;stroke-miterlimit:10;" d="M 208.101563 38.828125 L 217.367188 42.054688 L 216.128906 45.390625 L 207.328125 47.871094 L 205.816406 47.601563 L 203.574219 43.882813 L 199.5 44.335938 L 198.753906 43.613281 L 199.144531 42.734375 L 199.71875 39.492188 Z M 208.101563 38.828125 "/>
<path style="fill-rule:evenodd;fill:rgb(85.098039%,85.098039%,85.098039%);fill-opacity:1;stroke-width:1.066978;stroke-linecap:butt;stroke-linejoin:round;stroke:rgb(74.901961%,74.901961%,74.901961%);stroke-opacity:1;stroke-miterlimit:10;" d="M 108.558594 171.539063 L 114.398438 177.078125 L 108.660156 177.292969 Z M 108.558594 171.539063 "/>
<path style="fill-rule:evenodd;fill:rgb(85.098039%,85.098039%,85.098039%);fill-opacity:1;stroke-width:1.066978;stroke-linecap:butt;stroke-linejoin:round;stroke:rgb(74.901961%,74.901961%,74.901961%);stroke-opacity:1;stroke-miterlimit:10;" d="M 103.144531 48.085938 L 97.699219 53.269531 L 93.636719 54.496094 L 89.519531 62.046875 L 81.039063 69.5 L 65.210938 71.472656 L 60.910156 77.25 L 57.867188 71.628906 L 53.878906 71.324219 L 52.554688 67.894531 L 47.125 68.550781 L 40.738281 66.679688 L 38.160156 63.730469 L 37.378906 56.953125 L 39.378906 51.417969 L 46.476563 42.847656 L 63.058594 42.847656 L 82.21875 43.773438 L 86.660156 47.792969 L 84.8125 52.980469 L 94.75 48.277344 Z M 103.144531 48.085938 "/>
<path style="fill-rule:evenodd;fill:rgb(85.098039%,85.098039%,85.098039%);fill-opacity:1;stroke-width:1.066978;stroke-linecap:butt;stroke-linejoin:round;stroke:rgb(74.901961%,74.901961%,74.901961%);stroke-opacity:1;stroke-miterlimit:10;" d="M 53.480469 19.90625 L 40.464844 29.105469 L 45.121094 29.675781 L 44.28125 35.472656 L 44.488281 31.550781 L 33.304688 29.464844 L 21.824219 32.359375 L 17.453125 28.882813 L 26.414063 24.660156 L 29.484375 21.367188 L 36.445313 19.386719 Z M 53.480469 19.90625 "/>
<path style="fill-rule:evenodd;fill:rgb(85.098039%,85.098039%,85.098039%);fill-opacity:1;stroke-width:1.066978;stroke-linecap:butt;stroke-linejoin:round;stroke:rgb(74.901961%,74.901961%,74.901961%);stroke-opacity:1;stroke-miterlimit:10;" d="M 250.3125 59.3125 L 241.636719 53.339844 L 237.144531 53.507813 L 238.3125 47.464844 L 249.042969 53.710938 L 253.242188 52.132813 L 254.183594 55.054688 L 251.871094 59.640625 Z M 250.3125 59.3125 "/>
<path style="fill-rule:evenodd;fill:rgb(85.098039%,85.098039%,85.098039%);fill-opacity:1;stroke-width:1.066978;stroke-linecap:butt;stroke-linejoin:round;stroke:rgb(74.901961%,74.901961%,74.901961%);stroke-opacity:1;stroke-miterlimit:10;" d="M 88.523438 100.710938 L 96.195313 103.609375 L 98.46875 102.542969 L 102.324219 106.53125 L 100.933594 111.96875 L 97.011719 113.996094 L 93.269531 118.765625 L 92.453125 110.132813 L 87.273438 108.890625 L 86.21875 104.1875 Z M 88.523438 100.710938 "/>
<path style="fill-rule:evenodd;fill:rgb(85.098039%,85.098039%,85.098039%);fill-opacity:1;stroke-width:1.066978;stroke-linecap:butt;stroke-linejoin:round;stroke:rgb(74.901961%,74.901961%,74.901961%);stroke-opacity:1;stroke-miterlimit:10;" d="M 304.546875 84.304688 L 302.492188 88.4375 L 307.414063 94.78125 L 308.597656 100.898438 L 302.867188 102.910156 L 305.855469 96.59375 L 300.492188 85.617188 L 297.21875 82.800781 L 300.664063 81.347656 Z M 304.546875 84.304688 "/>
<path style="fill-rule:evenodd;fill:rgb(85.098039%,85.098039%,85.098039%);fill-opacity:1;stroke-width:1.066978;stroke-linecap:butt;stroke-linejoin:round;stroke:rgb(74.901961%,74.901961%,74.901961%);stroke-opacity:1;stroke-miterlimit:10;" d="M 239.65625 92.464844 L 234.597656 96.929688 L 228.402344 99.25 L 227.203125 92.976563 L 232.238281 91.964844 L 237.992188 88.535156 Z M 239.65625 92.464844 "/>
<path style="fill-rule:evenodd;fill:rgb(85.098039%,85.098039%,85.098039%);fill-opacity:1;stroke-width:1.066978;stroke-linecap:butt;stroke-linejoin:round;stroke:rgb(74.901961%,74.901961%,74.901961%);stroke-opacity:1;stroke-miterlimit:10;" d="M 194.566406 168.941406 L 198.722656 168.757813 L 199.015625 162.8125 L 205.773438 163.976563 L 210.578125 158.433594 L 212.660156 158.695313 L 213.019531 164.554688 L 213.183594 165.992188 L 214.074219 166.003906 L 207.898438 175.539063 L 197.808594 178.6875 Z M 194.566406 168.941406 "/>
<path style="fill-rule:evenodd;fill:rgb(85.098039%,85.098039%,85.098039%);fill-opacity:1;stroke-width:1.066978;stroke-linecap:butt;stroke-linejoin:round;stroke:rgb(74.901961%,74.901961%,74.901961%);stroke-opacity:1;stroke-miterlimit:10;" d="M 215.53125 136.792969 L 215.816406 144.863281 L 212.140625 147.457031 L 205.933594 151.203125 L 205.722656 151.078125 L 203.476563 150.84375 L 202.160156 143.042969 L 204.652344 139.691406 L 209.761719 141.980469 L 213.097656 135.269531 Z M 215.53125 136.792969 "/>
<path style="fill-rule:evenodd;fill:rgb(85.098039%,85.098039%,85.098039%);fill-opacity:1;stroke-width:1.066978;stroke-linecap:butt;stroke-linejoin:round;stroke:rgb(74.901961%,74.901961%,74.901961%);stroke-opacity:1;stroke-miterlimit:10;" d="M 212.660156 158.695313 L 210.578125 158.433594 L 205.933594 151.203125 L 212.140625 147.457031 L 215.164063 149.488281 Z M 212.660156 158.695313 "/>
<g clip-path="url(#clip1)" clip-rule="nonzero">
<path style="fill:none;stroke-width:0.75;stroke-linecap:round;stroke-linejoin:round;stroke:rgb(10.196078%,10.196078%,10.196078%);stroke-opacity:1;stroke-miterlimit:10;" d="M 0 242.5625 L 384 242.5625 L 384 0.4375 L 0 0.4375 Z M 0 242.5625 "/>
</g>
</g>
</svg>
